# xmcd CD database file
#
# Track frame offsets:
#	150
#	17797
#	35009
#	57327
#	72554
#	88302
#	116456
#	137808
#	158944
#	179871
#	198952
#	218055
#	237855
#	263254
#
# Disc length: 3860 seconds
#
# Revision: 23
# Processed by: cddbd v1.5.1PL2 Copyright (c) Steve Scherf et al.
# Submitted via: CDex 1.60beta1
#
DISCID=ce0f120e
DTITLE=B'z - B'z The Best "Treasure"
DYEAR=1998
DGENRE=JRock
TTITLE0=BLOWIN'
TTITLE1=恋心(KOI-GOKORO)
TTITLE2=TIME
TTITLE3=Liar! Liar!
TTITLE4=ねがい
TTITLE5=愛しい人よGood Night...
TTITLE6=Pleasure '98 ～人生の快楽～
TTITLE7=ミエナイチカラ ～INVINSIBLE ONE～
TTITLE8=もう一度キスしたかった
TTITLE9=FIREBALL
TTITLE10=Real Thing Shakes
TTITLE11=MOTEL
TTITLE12=いつかのメリークリスマス
TTITLE13=RUN -1998 style-
EXTD=YEAR: 1998
EXTT0=
EXTT1=
EXTT2=
EXTT3=
EXTT4=
EXTT5=
EXTT6=
EXTT7=
EXTT8=
EXTT9=
EXTT10=
EXTT11=
EXTT12=
EXTT13=
PLAYORDER=
